<?xml version="1.0" standalone="no"?>
<svg xmlns="http://www.w3.org/2000/svg" viewBox="0 0 172.5 29" width="172.5" height="29"><path fill="#3dbf4f" fill-rule="nonzero" d="M8.40 17.88Q6 17.88 4.09 16.84Q2.18 15.79 1.09 13.84Q0 11.88 0 9.26L0 9.26Q0 6.65 1.09 4.69Q2.18 2.74 4.09 1.69Q6 0.65 8.40 0.65L8.40 0.65Q10.03 0.65 11.32 1.03Q12.60 1.42 13.87 2.14L13.87 2.14Q14.40 2.42 14.40 3.05L14.40 3.05Q14.40 3.41 14.14 3.68Q13.87 3.96 13.44 3.96L13.44 3.96Q13.20 3.96 13.01 3.86L13.01 3.86Q11.95 3.31 10.94 3.02Q9.94 2.74 8.62 2.74L8.62 2.74Q6.55 2.74 5.10 3.59Q3.65 4.44 2.92 5.92Q2.18 7.39 2.18 9.26L2.18 9.26Q2.18 11.14 2.92 12.61Q3.65 14.09 5.10 14.94Q6.55 15.79 8.62 15.79L8.62 15.79Q9.94 15.79 10.94 15.50Q11.95 15.22 13.01 14.66L13.01 14.66Q13.20 14.57 13.44 14.57L13.44 14.57Q13.87 14.57 14.14 14.83Q14.40 15.10 14.40 15.48L14.40 15.48Q14.40 16.10 13.87 16.39L13.87 16.39Q12.60 17.11 11.32 17.50Q10.03 17.88 8.40 17.88L8.40 17.88ZM18.34 17.76Q17.88 17.76 17.57 17.45Q17.26 17.14 17.26 16.68L17.26 16.68L17.26 1.10Q17.26 0.65 17.57 0.32Q17.88 0 18.34 0L18.34 0Q18.79 0 19.12 0.32Q19.44 0.65 19.44 1.10L19.44 1.10L19.44 7.37Q20.35 6.36 21.41 5.76Q22.46 5.16 23.90 5.16L23.90 5.16Q25.22 5.16 26.20 5.78Q27.17 6.41 27.68 7.49Q28.20 8.57 28.20 9.86L28.20 9.86L28.20 16.68Q28.20 17.14 27.88 17.45Q27.55 17.76 27.10 17.76L27.10 17.76Q26.64 17.76 26.33 17.45Q26.02 17.14 26.02 16.68L26.02 16.68L26.02 10.10Q26.02 7.18 23.38 7.18L23.38 7.18Q22.18 7.18 21.23 7.80Q20.28 8.42 19.44 9.48L19.44 9.48L19.44 16.68Q19.44 17.14 19.12 17.45Q18.79 17.76 18.34 17.76L18.34 17.76ZM34.99 17.88Q33.94 17.88 33.04 17.45Q32.14 17.02 31.61 16.19Q31.08 15.36 31.08 14.28L31.08 14.28Q31.08 12.50 32.48 11.45Q33.89 10.39 36.60 10.39L36.60 10.39L39.50 10.39L39.50 10.20Q39.50 8.62 38.72 7.92Q37.94 7.22 36.29 7.22L36.29 7.22Q35.38 7.22 34.67 7.37Q33.96 7.51 33.10 7.80L33.10 7.80Q32.90 7.85 32.78 7.85L32.78 7.85Q32.42 7.85 32.16 7.58Q31.90 7.32 31.90 6.94L31.90 6.94Q31.90 6.29 32.52 6.02L32.52 6.02Q34.56 5.16 36.67 5.16L36.67 5.16Q38.33 5.16 39.47 5.83Q40.61 6.50 41.15 7.57Q41.69 8.64 41.69 9.89L41.69 9.89L41.69 16.68Q41.69 17.14 41.36 17.45Q41.04 17.76 40.58 17.76L40.58 17.76Q40.13 17.76 39.82 17.45Q39.50 17.14 39.50 16.68L39.50 16.68L39.50 16.06Q37.73 17.88 34.99 17.88L34.99 17.88ZM35.81 15.96Q36.86 15.96 37.85 15.44Q38.83 14.93 39.50 14.16L39.50 14.16L39.50 12.14L36.89 12.14Q33.26 12.14 33.26 14.04L33.26 14.04Q33.26 14.90 33.85 15.43Q34.44 15.96 35.81 15.96L35.81 15.96ZM46.44 17.76Q45.98 17.76 45.67 17.45Q45.36 17.14 45.36 16.68L45.36 16.68L45.36 6.38Q45.36 5.93 45.67 5.60Q45.98 5.28 46.44 5.28L46.44 5.28Q46.90 5.28 47.22 5.60Q47.54 5.93 47.54 6.38L47.54 6.38L47.54 7.42Q49.22 5.16 51.31 5.16L51.31 5.16L51.43 5.16Q51.89 5.16 52.19 5.47Q52.49 5.78 52.49 6.24L52.49 6.24Q52.49 6.70 52.18 6.98Q51.86 7.27 51.38 7.27L51.38 7.27L51.26 7.27Q50.11 7.27 49.15 7.84Q48.19 8.40 47.54 9.38L47.54 9.38L47.54 16.68Q47.54 17.14 47.22 17.45Q46.90 17.76 46.44 17.76L46.44 17.76ZM55.63 17.76Q55.18 17.76 54.86 17.45Q54.55 17.14 54.55 16.68L54.55 16.68L54.55 6.38Q54.55 5.93 54.86 5.60Q55.18 5.28 55.63 5.28L55.63 5.28Q56.09 5.28 56.41 5.60Q56.74 5.93 56.74 6.38L56.74 6.38L56.74 7.37Q57.41 6.41 58.36 5.78Q59.30 5.16 60.82 5.16L60.82 5.16Q62.16 5.16 63.12 5.88Q64.08 6.60 64.49 7.63L64.49 7.63Q65.98 5.16 68.90 5.16L68.90 5.16Q70.25 5.16 71.15 5.83Q72.05 6.50 72.48 7.56Q72.91 8.62 72.91 9.77L72.91 9.77L72.91 16.68Q72.91 17.14 72.59 17.45Q72.26 17.76 71.81 17.76L71.81 17.76Q71.35 17.76 71.04 17.45Q70.73 17.14 70.73 16.68L70.73 16.68L70.73 10.20Q70.73 8.64 70.18 7.91Q69.62 7.18 68.28 7.18L68.28 7.18Q67.06 7.18 66.25 7.81Q65.45 8.45 64.82 9.48L64.82 9.48L64.82 16.68Q64.82 17.14 64.50 17.45Q64.18 17.76 63.72 17.76L63.72 17.76Q63.26 17.76 62.95 17.45Q62.64 17.14 62.64 16.68L62.64 16.68L62.64 10.20Q62.64 8.64 62.09 7.91Q61.54 7.18 60.19 7.18L60.19 7.18Q58.97 7.18 58.16 7.81Q57.36 8.45 56.74 9.48L56.74 9.48L56.74 16.68Q56.74 17.14 56.41 17.45Q56.09 17.76 55.63 17.76L55.63 17.76ZM80.45 17.76Q79.99 17.76 79.68 17.45Q79.37 17.14 79.37 16.68L79.37 16.68L79.37 2.93L74.47 2.93Q74.04 2.93 73.75 2.64Q73.46 2.35 73.46 1.92L73.46 1.92Q73.46 1.49 73.75 1.19Q74.04 0.89 74.47 0.89L74.47 0.89L86.42 0.89Q86.86 0.89 87.16 1.19Q87.46 1.49 87.46 1.92L87.46 1.92Q87.46 2.35 87.16 2.64Q86.86 2.93 86.42 2.93L86.42 2.93L81.55 2.93L81.55 16.68Q81.55 17.14 81.23 17.45Q80.90 17.76 80.45 17.76L80.45 17.76ZM93.60 17.88Q90.67 17.88 89.03 16.21Q87.38 14.54 87.38 11.52L87.38 11.52Q87.38 9.82 88.01 8.38Q88.63 6.94 89.93 6.05Q91.22 5.16 93.12 5.16L93.12 5.16Q94.90 5.16 96.19 5.99Q97.49 6.82 98.16 8.20Q98.83 9.58 98.83 11.21L98.83 11.21Q98.83 11.66 98.53 11.98Q98.23 12.29 97.73 12.29L97.73 12.29L89.59 12.29Q89.78 13.97 90.84 14.90Q91.90 15.84 93.79 15.84L93.79 15.84Q94.80 15.84 95.56 15.65Q96.31 15.46 97.03 15.10L97.03 15.10Q97.22 15 97.46 15L97.46 15Q97.85 15 98.14 15.26Q98.42 15.53 98.42 15.94L98.42 15.94Q98.42 16.46 97.80 16.82L97.80 16.82Q96.86 17.35 95.95 17.62Q95.04 17.88 93.60 17.88L93.60 17.88ZM89.59 10.51L96.67 10.51Q96.60 9.34 96.06 8.54Q95.52 7.75 94.73 7.38Q93.94 7.01 93.12 7.01L93.12 7.01Q92.30 7.01 91.51 7.38Q90.72 7.75 90.19 8.54Q89.66 9.34 89.59 10.51L89.59 10.51ZM107.38 17.88Q105.65 17.88 104.18 17.11Q102.72 16.34 101.84 14.90Q100.97 13.46 100.97 11.52L100.97 11.52Q100.97 9.58 101.84 8.14Q102.72 6.70 104.18 5.93Q105.65 5.16 107.38 5.16L107.38 5.16Q108.65 5.16 109.57 5.48Q110.50 5.81 111.29 6.31L111.29 6.31Q111.77 6.62 111.77 7.15L111.77 7.15Q111.77 7.51 111.49 7.81Q111.22 8.11 110.86 8.11L110.86 8.11Q110.59 8.11 110.33 7.97L110.33 7.97Q109.54 7.56 108.97 7.38Q108.41 7.20 107.57 7.20L107.57 7.20Q105.50 7.20 104.33 8.39Q103.15 9.58 103.15 11.52L103.15 11.52Q103.15 13.46 104.33 14.65Q105.50 15.84 107.57 15.84L107.57 15.84Q108.41 15.84 108.97 15.66Q109.54 15.48 110.33 15.07L110.33 15.07Q110.59 14.93 110.86 14.93L110.86 14.93Q111.22 14.93 111.49 15.23Q111.77 15.53 111.77 15.89L111.77 15.89Q111.77 16.42 111.29 16.73L111.29 16.73Q110.50 17.23 109.57 17.56Q108.65 17.88 107.38 17.88L107.38 17.88ZM115.58 17.76Q115.13 17.76 114.82 17.45Q114.50 17.14 114.50 16.68L114.50 16.68L114.50 1.10Q114.50 0.65 114.82 0.32Q115.13 0 115.58 0L115.58 0Q116.04 0 116.36 0.32Q116.69 0.65 116.69 1.10L116.69 1.10L116.69 7.37Q117.60 6.36 118.66 5.76Q119.71 5.16 121.15 5.16L121.15 5.16Q122.47 5.16 123.44 5.78Q124.42 6.41 124.93 7.49Q125.45 8.57 125.45 9.86L125.45 9.86L125.45 16.68Q125.45 17.14 125.12 17.45Q124.80 17.76 124.34 17.76L124.34 17.76Q123.89 17.76 123.58 17.45Q123.26 17.14 123.26 16.68L123.26 16.68L123.26 10.10Q123.26 7.18 120.62 7.18L120.62 7.18Q119.42 7.18 118.48 7.80Q117.53 8.42 116.69 9.48L116.69 9.48L116.69 16.68Q116.69 17.14 116.36 17.45Q116.04 17.76 115.58 17.76L115.58 17.76Z" transform="translate(0, 5.56)"></path><line x1="134.448" y1="2%" x2="134.448" y2="98%" stroke="#3dbf4f" stroke-linecap="round"></line><g fill="#23a612" color="#23a612" transform="translate(143.448 0) scale(0.29)"><svg width="100.0" height="100.0" x="0.0" y="0.0" viewBox="0 0 100 100"><path d="M27.9,69l19-19l-19-19c-5.2-5.2-13.7-5.2-19,0c-5.2,5.2-5.2,13.7,0,19c-5.2,5.2-5.2,13.7,0,19C14.2,74.2,22.6,74.2,27.9,69z  "></path><path d="M50,53.2l-19,19c-5.2,5.2-5.2,13.7,0,19c5.2,5.2,13.7,5.2,19,0c5.2,5.2,13.7,5.2,19,0c5.2-5.2,5.2-13.7,0-19L50,53.2z"></path><path d="M91.1,31c-5.2-5.2-13.7-5.2-19,0l-19,19l19,19c5.2,5.2,13.7,5.2,19,0c5.2-5.2,5.2-13.7,0-19C96.3,44.8,96.3,36.3,91.1,31z"></path><path d="M69,8.9c-5.2-5.2-13.7-5.2-19,0c-5.2-5.2-13.7-5.2-19,0c-5.2,5.2-5.2,13.7,0,19l19,19l19-19C74.2,22.6,74.2,14.2,69,8.9z"></path></svg></g></svg>