<?xml version="1.0" standalone="no"?>
<svg xmlns="http://www.w3.org/2000/svg" viewBox="0 0 229.12 52.68" width="229.12" height="52.68"><rect fill="none" stroke="#fea701" stroke-width="4" width="225.12" height="48.68" x="2" y="2"></rect><g fill="#000000" color="#000000" transform="translate(188.44 12) scale(0.2868)"><svg width="100.0" height="100.0" x="0.0" y="0.0" viewBox="0 0 100 100"><path d="M27.9,69l19-19l-19-19c-5.2-5.2-13.7-5.2-19,0c-5.2,5.2-5.2,13.7,0,19c-5.2,5.2-5.2,13.7,0,19C14.2,74.2,22.6,74.2,27.9,69z  "></path><path d="M50,53.2l-19,19c-5.2,5.2-5.2,13.7,0,19c5.2,5.2,13.7,5.2,19,0c5.2,5.2,13.7,5.2,19,0c5.2-5.2,5.2-13.7,0-19L50,53.2z"></path><path d="M91.1,31c-5.2-5.2-13.7-5.2-19,0l-19,19l19,19c5.2,5.2,13.7,5.2,19,0c5.2-5.2,5.2-13.7,0-19C96.3,44.8,96.3,36.3,91.1,31z"></path><path d="M69,8.9c-5.2-5.2-13.7-5.2-19,0c-5.2-5.2-13.7-5.2-19,0c-5.2,5.2-5.2,13.7,0,19l19,19l19-19C74.2,22.6,74.2,14.2,69,8.9z"></path></svg></g><path fill="#000000" fill-rule="nonzero" d="M7.84 28.68L7.84 28.68Q5.64 28.68 3.86 27.58Q2.08 26.48 1.04 24.64Q0 22.80 0 20.52L0 20.52L0.04 8.04Q0.04 5.84 1.06 4.02Q2.08 2.20 3.86 1.10Q5.64 0 7.84 0L7.84 0Q10.04 0 11.80 1.08Q13.56 2.16 14.60 3.98Q15.64 5.80 15.64 8.04L15.64 8.04L15.64 9.88Q15.64 10.04 15.48 10.04L15.48 10.04L11 10.04Q10.84 10.04 10.84 9.88L10.84 9.88L10.84 8.04Q10.84 6.72 9.98 5.76Q9.12 4.80 7.84 4.80L7.84 4.80Q6.40 4.80 5.64 5.78Q4.88 6.76 4.88 8.04L4.88 8.04L4.88 20.52Q4.88 22 5.74 22.92Q6.60 23.84 7.84 23.84L7.84 23.84Q9.12 23.84 9.98 22.82Q10.84 21.80 10.84 20.52L10.84 20.52L10.84 18.68Q10.84 18.52 11 18.52L11 18.52L15.52 18.52Q15.68 18.52 15.68 18.68L15.68 18.68L15.68 20.52Q15.68 22.80 14.62 24.64Q13.56 26.48 11.80 27.58Q10.04 28.68 7.84 28.68ZM23.28 28.28L18.76 28.28Q18.60 28.28 18.60 28.08L18.60 28.08L18.64 0.60Q18.64 0.44 18.84 0.44L18.84 0.44L23.28 0.44Q23.48 0.44 23.48 0.60L23.48 0.60L23.44 11.48L29.44 11.48L29.44 0.60Q29.44 0.44 29.60 0.44L29.60 0.44L34.04 0.44Q34.24 0.44 34.24 0.60L34.24 0.60L34.32 28.08Q34.32 28.28 34.12 28.28L34.12 28.28L29.64 28.28Q29.44 28.28 29.44 28.08L29.44 28.08L29.44 16.32L23.44 16.32L23.44 28.08Q23.44 28.28 23.28 28.28L23.28 28.28ZM36.24 28.08L36.24 28.08L41.20 0.60Q41.24 0.44 41.40 0.44L41.40 0.44L47.20 0.44Q47.36 0.44 47.40 0.60L47.40 0.60L52.16 28.08Q52.20 28.28 52 28.28L52 28.28L47.56 28.28Q47.40 28.28 47.36 28.08L47.36 28.08L46.92 25.16L41.48 25.16L41.04 28.08Q41 28.28 40.84 28.28L40.84 28.28L36.40 28.28Q36.24 28.28 36.24 28.08ZM44.08 9.64L42.28 20.88L46.12 20.88L44.48 9.64L44.24 8.16L44.08 9.64ZM59.36 28.28L54.84 28.28Q54.68 28.28 54.68 28.08L54.68 28.08L54.76 0.60Q54.76 0.44 54.92 0.44L54.92 0.44L63 0.44Q65.16 0.44 66.98 1.50Q68.80 2.56 69.88 4.34Q70.96 6.12 70.96 8.36L70.96 8.36Q70.96 9.84 70.52 11.02Q70.08 12.20 69.48 13.02Q68.88 13.84 68.40 14.24L68.40 14.24Q70.56 16.64 70.56 19.88L70.56 19.88L70.60 28.08Q70.60 28.28 70.40 28.28L70.40 28.28L65.88 28.28Q65.72 28.28 65.72 28.16L65.72 28.16L65.72 19.88Q65.72 18.44 64.70 17.38Q63.68 16.32 62.20 16.32L62.20 16.32L59.56 16.32L59.52 28.08Q59.52 28.28 59.36 28.28L59.36 28.28ZM59.56 5.24L59.56 11.52L63 11.52Q64.24 11.52 65.20 10.60Q66.16 9.68 66.16 8.36L66.16 8.36Q66.16 7.08 65.22 6.16Q64.28 5.24 63 5.24L63 5.24L59.56 5.24ZM78.64 28.28L74.12 28.28Q73.96 28.28 73.96 28.08L73.96 28.08L74.04 0.60Q74.04 0.44 74.20 0.44L74.20 0.44L79.08 0.44Q79.24 0.44 79.36 0.60L79.36 0.60L83 5.88L86.64 0.60Q86.76 0.44 86.92 0.44L86.92 0.44L91.84 0.44Q92 0.44 92 0.60L92 0.60L92.08 28.08Q92.08 28.28 91.92 28.28L91.92 28.28L87.40 28.28Q87.24 28.28 87.24 28.08L87.24 28.08L87.20 7.68L83 13.76L78.84 7.68L78.80 28.08Q78.80 28.28 78.64 28.28L78.64 28.28ZM103.96 28.28L99.44 28.28Q99.28 28.28 99.28 28.08L99.28 28.08L99.28 5.28L94.08 5.28Q93.88 5.28 93.88 5.08L93.88 5.08L93.92 0.60Q93.92 0.44 94.08 0.44L94.08 0.44L109.28 0.44Q109.48 0.44 109.48 0.60L109.48 0.60L109.48 5.08Q109.48 5.28 109.32 5.28L109.32 5.28L104.08 5.28L104.12 28.08Q104.12 28.28 103.96 28.28L103.96 28.28ZM124.52 28.28L111.60 28.28Q111.44 28.28 111.44 28.08L111.44 28.08L111.48 0.60Q111.48 0.44 111.64 0.44L111.64 0.44L124.48 0.44Q124.64 0.44 124.64 0.64L124.64 0.64L124.64 5.12Q124.64 5.28 124.48 5.28L124.48 5.28L116.28 5.28L116.28 11.52L124.48 11.52Q124.64 11.52 124.64 11.68L124.64 11.68L124.68 16.20Q124.68 16.36 124.52 16.36L124.52 16.36L116.28 16.36L116.28 23.36L124.52 23.36Q124.68 23.36 124.68 23.56L124.68 23.56L124.68 28.12Q124.68 28.28 124.52 28.28L124.52 28.28ZM134.96 28.68L134.96 28.68Q132.76 28.68 130.98 27.58Q129.20 26.48 128.16 24.64Q127.12 22.80 127.12 20.52L127.12 20.52L127.16 8.04Q127.16 5.84 128.18 4.02Q129.20 2.20 130.98 1.10Q132.76 0 134.96 0L134.96 0Q137.16 0 138.92 1.08Q140.68 2.16 141.72 3.98Q142.76 5.80 142.76 8.04L142.76 8.04L142.76 9.88Q142.76 10.04 142.60 10.04L142.60 10.04L138.12 10.04Q137.96 10.04 137.96 9.88L137.96 9.88L137.96 8.04Q137.96 6.72 137.10 5.76Q136.24 4.80 134.96 4.80L134.96 4.80Q133.52 4.80 132.76 5.78Q132 6.76 132 8.04L132 8.04L132 20.52Q132 22 132.86 22.92Q133.72 23.84 134.96 23.84L134.96 23.84Q136.24 23.84 137.10 22.82Q137.96 21.80 137.96 20.52L137.96 20.52L137.96 18.68Q137.96 18.52 138.12 18.52L138.12 18.52L142.64 18.52Q142.80 18.52 142.80 18.68L142.80 18.68L142.80 20.52Q142.80 22.80 141.74 24.64Q140.68 26.48 138.92 27.58Q137.16 28.68 134.96 28.68ZM150.40 28.28L145.88 28.28Q145.72 28.28 145.72 28.08L145.72 28.08L145.76 0.60Q145.76 0.44 145.96 0.44L145.96 0.44L150.40 0.44Q150.60 0.44 150.60 0.60L150.60 0.60L150.56 11.48L156.56 11.48L156.56 0.60Q156.56 0.44 156.72 0.44L156.72 0.44L161.16 0.44Q161.36 0.44 161.36 0.60L161.36 0.60L161.44 28.08Q161.44 28.28 161.24 28.28L161.24 28.28L156.76 28.28Q156.56 28.28 156.56 28.08L156.56 28.08L156.56 16.32L150.56 16.32L150.56 28.08Q150.56 28.28 150.40 28.28L150.40 28.28Z" transform="translate(12 12) scale(1)"></path></svg>